<svg width="28" height="31" viewBox="0 0 28 31" fill="none" xmlns="http://www.w3.org/2000/svg">
<path d="M6.05 2L2 7.4V26.3C2 27.0161 2.28446 27.7028 2.79081 28.2092C3.29716 28.7155 3.98392 29 4.7 29H23.6C24.3161 29 25.0028 28.7155 25.5092 28.2092C26.0155 27.7028 26.3 27.0161 26.3 26.3V7.4L22.25 2H6.05Z" stroke="#333333" stroke-width="2.5" stroke-linecap="round" stroke-linejoin="round"/>
<path d="M2 7.40039H26.3" stroke="#333333" stroke-width="2.5" stroke-linecap="round" stroke-linejoin="round"/>
<path d="M19.55 12.7969C19.55 14.229 18.9811 15.6026 17.9684 16.6153C16.9557 17.6279 15.5822 18.1969 14.15 18.1969C12.7178 18.1969 11.3443 17.6279 10.3316 16.6153C9.31893 15.6026 8.75 14.229 8.75 12.7969" stroke="#333333" stroke-width="2.5" stroke-linecap="round" stroke-linejoin="round"/>
</svg>
