<svg width="20" height="21" viewBox="0 0 20 21" fill="none" xmlns="http://www.w3.org/2000/svg">
<g clip-path="url(#clip0_202_2160)">
<path d="M17.5 9.27344C17.5 15.1068 10 20.1068 10 20.1068C10 20.1068 2.5 15.1068 2.5 9.27344C2.5 7.28431 3.29018 5.37666 4.6967 3.97014C6.10322 2.56361 8.01088 1.77344 10 1.77344C11.9891 1.77344 13.8968 2.56361 15.3033 3.97014C16.7098 5.37666 17.5 7.28431 17.5 9.27344Z" stroke="#3F3F3F" stroke-width="1.5" stroke-linecap="round" stroke-linejoin="round"/>
<path d="M10 11.7734C11.3807 11.7734 12.5 10.6541 12.5 9.27344C12.5 7.89273 11.3807 6.77344 10 6.77344C8.61929 6.77344 7.5 7.89273 7.5 9.27344C7.5 10.6541 8.61929 11.7734 10 11.7734Z" stroke="#3F3F3F" stroke-width="1.5" stroke-linecap="round" stroke-linejoin="round"/>
</g>
<defs>
<clipPath id="clip0_202_2160">
<rect width="20" height="20" fill="white" transform="translate(0 0.9375)"/>
</clipPath>
</defs>
</svg>
