<svg width="40" height="40" viewBox="0 0 40 40" fill="none" xmlns="http://www.w3.org/2000/svg">
<path d="M12.05 7L8 12.4V31.3C8 32.0161 8.28446 32.7028 8.79081 33.2092C9.29716 33.7155 9.98392 34 10.7 34H29.6C30.3161 34 31.0028 33.7155 31.5092 33.2092C32.0155 32.7028 32.3 32.0161 32.3 31.3V12.4L28.25 7H12.05Z" stroke="#333333" stroke-width="2.5" stroke-linecap="round" stroke-linejoin="round"/>
<path d="M8 12.4004H32.3" stroke="#333333" stroke-width="2.5" stroke-linecap="round" stroke-linejoin="round"/>
<path d="M25.55 17.7969C25.55 19.229 24.9811 20.6026 23.9684 21.6153C22.9557 22.6279 21.5822 23.1969 20.15 23.1969C18.7178 23.1969 17.3443 22.6279 16.3316 21.6153C15.3189 20.6026 14.75 19.229 14.75 17.7969" stroke="#333333" stroke-width="2.5" stroke-linecap="round" stroke-linejoin="round"/>
</svg>
