<svg width="25" height="24" viewBox="0 0 25 24" fill="none" xmlns="http://www.w3.org/2000/svg">
<path d="M4.75 13V23H20.75V13" stroke="#3F3F3F" stroke-width="2" stroke-linecap="round"/>
<path fill-rule="evenodd" clip-rule="evenodd" d="M13.25 16C11.317 16 9.75 17.567 9.75 19.5V24H11.75V19.5C11.75 18.6716 12.4216 18 13.25 18C14.0784 18 14.75 18.6716 14.75 19.5V24H16.75V19.5C16.75 17.567 15.183 16 13.25 16Z" fill="#3F3F3F"/>
<path fill-rule="evenodd" clip-rule="evenodd" d="M4.56818 3H20.9318L22.75 9C22.75 10.1046 21.4069 11 19.75 11C18.7354 11 17.8384 10.6642 17.2955 10.1502C16.843 10.6642 16.0955 11 15.25 11C14.2254 11 13.0695 10.5069 12.5413 9.80121C12.1552 10.5069 11.2746 11 10.25 11C9.40447 11 8.65699 10.6642 8.20455 10.1502C7.66162 10.6642 6.76463 11 5.75 11C4.09315 11 2.75 10.1046 2.75 9L4.56818 3Z" fill="white"/>
<path d="M20.9318 3L21.8888 2.70999L21.6737 2H20.9318V3ZM4.56818 3V2H3.82631L3.61116 2.70999L4.56818 3ZM22.75 9H23.75V8.85181L23.707 8.70999L22.75 9ZM17.2955 10.1502L17.9829 9.42401L17.23 8.71115L16.5448 9.48948L17.2955 10.1502ZM12.5413 9.80121L13.3419 9.20203L12.4103 7.95723L11.664 9.32122L12.5413 9.80121ZM8.20455 10.1502L8.95517 9.48948L8.27005 8.71116L7.51706 9.42402L8.20455 10.1502ZM2.75 9L1.79298 8.70999L1.75 8.85181V9H2.75ZM20.9318 2H4.56818V4H20.9318V2ZM23.707 8.70999L21.8888 2.70999L19.9748 3.29001L21.793 9.29001L23.707 8.70999ZM21.75 9C21.75 9.1139 21.6807 9.33942 21.3166 9.58216C20.9595 9.82024 20.4085 10 19.75 10V12C20.7483 12 21.6974 11.732 22.426 11.2463C23.1477 10.7651 23.75 9.99067 23.75 9H21.75ZM19.75 10C18.9324 10 18.3015 9.72559 17.9829 9.42401L16.608 10.8764C17.3753 11.6028 18.5383 12 19.75 12V10ZM15.25 12C16.3483 12 17.3821 11.5653 18.0461 10.8109L16.5448 9.48948C16.304 9.76312 15.8428 10 15.25 10V12ZM11.7407 10.4004C12.1378 10.9309 12.7191 11.3233 13.3085 11.5813C13.9054 11.8426 14.5866 12 15.25 12V10C14.8889 10 14.4797 9.91082 14.1105 9.74919C13.7337 9.58423 13.473 9.37718 13.3419 9.20203L11.7407 10.4004ZM10.25 12C11.5676 12 12.8248 11.3665 13.4186 10.2812L11.664 9.32122C11.4856 9.64736 10.9816 10 10.25 10V12ZM7.45393 10.8109C8.11793 11.5653 9.15174 12 10.25 12V10C9.65721 10 9.19604 9.76312 8.95517 9.48948L7.45393 10.8109ZM5.75 12C6.96167 12 8.12474 11.6028 8.89203 10.8764L7.51706 9.42402C7.1985 9.72559 6.56759 10 5.75 10V12ZM1.75 9C1.75 9.99067 2.3523 10.7651 3.07398 11.2463C3.80265 11.732 4.75168 12 5.75 12V10C5.09146 10 4.5405 9.82024 4.18338 9.58216C3.81927 9.33942 3.75 9.1139 3.75 9H1.75ZM3.61116 2.70999L1.79298 8.70999L3.70702 9.29001L5.52521 3.29001L3.61116 2.70999Z" fill="#3F3F3F"/>
</svg>
